<mxfile host="app.diagrams.net" modified="2023-09-20T17:22:38.600Z" agent="Mozilla/5.0 (Windows NT 10.0; Win64; x64) AppleWebKit/537.36 (KHTML, like Gecko) Chrome/117.0.0.0 Safari/537.36 Edg/117.0.2045.31" etag="hacWGIw_qx2gRqJ1Z6KB" version="21.7.5" type="device" pages="2">
  <diagram name="Page-1" id="JdXEqXWLKC85ZZA9uaXU">
    <mxGraphModel dx="830" dy="450" grid="1" gridSize="10" guides="1" tooltips="1" connect="1" arrows="1" fold="1" page="1" pageScale="1" pageWidth="827" pageHeight="1169" math="0" shadow="0">
      <root>
        <mxCell id="0" />
        <mxCell id="1" parent="0" />
        <mxCell id="BT_pD9zk_FQ_WsI9VL0k-18" style="edgeStyle=orthogonalEdgeStyle;rounded=0;orthogonalLoop=1;jettySize=auto;html=1;exitX=0.5;exitY=1;exitDx=0;exitDy=0;entryX=0.5;entryY=0;entryDx=0;entryDy=0;endArrow=none;endFill=0;" parent="1" source="BT_pD9zk_FQ_WsI9VL0k-11" edge="1">
          <mxGeometry relative="1" as="geometry">
            <mxPoint x="420" y="150" as="targetPoint" />
          </mxGeometry>
        </mxCell>
        <mxCell id="BT_pD9zk_FQ_WsI9VL0k-11" value="Начало" style="rounded=1;whiteSpace=wrap;html=1;glass=0;shadow=0;arcSize=50;" parent="1" vertex="1">
          <mxGeometry x="360" y="80" width="120" height="50" as="geometry" />
        </mxCell>
        <mxCell id="BT_pD9zk_FQ_WsI9VL0k-19" style="edgeStyle=orthogonalEdgeStyle;rounded=0;orthogonalLoop=1;jettySize=auto;html=1;exitX=0.5;exitY=1;exitDx=0;exitDy=0;entryX=0.5;entryY=0;entryDx=0;entryDy=0;endArrow=none;endFill=0;" parent="1" target="BT_pD9zk_FQ_WsI9VL0k-17" edge="1">
          <mxGeometry relative="1" as="geometry">
            <mxPoint x="420" y="270" as="sourcePoint" />
          </mxGeometry>
        </mxCell>
        <mxCell id="TQRkU8AGElYEcV9vLXNm-2" style="edgeStyle=orthogonalEdgeStyle;rounded=0;orthogonalLoop=1;jettySize=auto;html=1;entryX=0.5;entryY=0;entryDx=0;entryDy=0;endArrow=none;endFill=0;" parent="1" source="BT_pD9zk_FQ_WsI9VL0k-17" target="TQRkU8AGElYEcV9vLXNm-1" edge="1">
          <mxGeometry relative="1" as="geometry" />
        </mxCell>
        <mxCell id="BT_pD9zk_FQ_WsI9VL0k-17" value="Ввод N" style="shape=parallelogram;perimeter=parallelogramPerimeter;whiteSpace=wrap;html=1;fixedSize=1;" parent="1" vertex="1">
          <mxGeometry x="360" y="290" width="120" height="50" as="geometry" />
        </mxCell>
        <mxCell id="eaBBMcpNrd400QjQ1bpR-2" style="edgeStyle=orthogonalEdgeStyle;rounded=0;orthogonalLoop=1;jettySize=auto;html=1;entryX=0.5;entryY=0;entryDx=0;entryDy=0;endArrow=none;endFill=0;" edge="1" parent="1" source="srZ-Jgqwcyv4Y-StaCKT-1" target="eaBBMcpNrd400QjQ1bpR-1">
          <mxGeometry relative="1" as="geometry" />
        </mxCell>
        <mxCell id="srZ-Jgqwcyv4Y-StaCKT-1" value="N := 0;&lt;br&gt;Sum := 0;&lt;br&gt;NumberInLoop := 1;" style="rounded=0;whiteSpace=wrap;html=1;" parent="1" vertex="1">
          <mxGeometry x="360" y="150" width="120" height="50" as="geometry" />
        </mxCell>
        <mxCell id="TQRkU8AGElYEcV9vLXNm-3" style="edgeStyle=orthogonalEdgeStyle;rounded=0;orthogonalLoop=1;jettySize=auto;html=1;entryX=0.5;entryY=0;entryDx=0;entryDy=0;endArrow=none;endFill=0;" parent="1" source="TQRkU8AGElYEcV9vLXNm-1" edge="1">
          <mxGeometry relative="1" as="geometry">
            <mxPoint x="420" y="430" as="targetPoint" />
          </mxGeometry>
        </mxCell>
        <mxCell id="TQRkU8AGElYEcV9vLXNm-1" value="High := N;" style="rounded=0;whiteSpace=wrap;html=1;" parent="1" vertex="1">
          <mxGeometry x="360" y="360" width="120" height="50" as="geometry" />
        </mxCell>
        <mxCell id="aoLVoWJ23YVqk_wifeof-1" value="A" style="ellipse;whiteSpace=wrap;html=1;aspect=fixed;" parent="1" vertex="1">
          <mxGeometry x="400" y="430" width="40" height="40" as="geometry" />
        </mxCell>
        <mxCell id="eaBBMcpNrd400QjQ1bpR-1" value="Low := 1;&lt;br&gt;&amp;nbsp;High := 0;" style="rounded=0;whiteSpace=wrap;html=1;" vertex="1" parent="1">
          <mxGeometry x="360" y="220" width="120" height="50" as="geometry" />
        </mxCell>
      </root>
    </mxGraphModel>
  </diagram>
  <diagram id="3yRBwdSIYEicfRjF_505" name="Page-2">
    <mxGraphModel dx="830" dy="450" grid="1" gridSize="10" guides="1" tooltips="1" connect="1" arrows="1" fold="1" page="1" pageScale="1" pageWidth="827" pageHeight="1169" math="0" shadow="0">
      <root>
        <mxCell id="0" />
        <mxCell id="1" parent="0" />
        <mxCell id="LTyEZzisa3DiOGPQO1N8-1" value="" style="shape=loopLimit;rotation=-180;size=20;rounded=0;allowArrows=1;connectable=1;html=1;direction=east;container=0;fontColor=default;labelBorderColor=none;whiteSpace=wrap;spacing=2;spacingTop=0;" vertex="1" parent="1">
          <mxGeometry x="320" y="540" width="120" height="50" as="geometry">
            <mxRectangle x="450" y="510" width="40" height="30" as="alternateBounds" />
          </mxGeometry>
        </mxCell>
        <mxCell id="LTyEZzisa3DiOGPQO1N8-2" style="edgeStyle=orthogonalEdgeStyle;rounded=0;orthogonalLoop=1;jettySize=auto;html=1;exitX=0.5;exitY=1;exitDx=0;exitDy=0;entryX=0.5;entryY=0;entryDx=0;entryDy=0;endArrow=none;endFill=0;" edge="1" parent="1" source="LTyEZzisa3DiOGPQO1N8-3">
          <mxGeometry relative="1" as="geometry">
            <mxPoint x="380" y="200" as="targetPoint" />
            <mxPoint x="380" y="180" as="sourcePoint" />
          </mxGeometry>
        </mxCell>
        <mxCell id="LTyEZzisa3DiOGPQO1N8-3" value="A1&lt;br&gt;Low := 1 до N" style="shape=loopLimit;whiteSpace=wrap;html=1;" vertex="1" parent="1">
          <mxGeometry x="320" y="130" width="120" height="50" as="geometry" />
        </mxCell>
        <mxCell id="LTyEZzisa3DiOGPQO1N8-4" style="edgeStyle=orthogonalEdgeStyle;rounded=0;orthogonalLoop=1;jettySize=auto;html=1;endArrow=none;endFill=0;" edge="1" parent="1" source="LTyEZzisa3DiOGPQO1N8-5">
          <mxGeometry relative="1" as="geometry">
            <mxPoint x="380" y="610" as="targetPoint" />
          </mxGeometry>
        </mxCell>
        <mxCell id="LTyEZzisa3DiOGPQO1N8-5" value="Low&lt;br&gt;A1" style="text;html=1;strokeColor=none;fillColor=none;align=center;verticalAlign=middle;whiteSpace=wrap;rounded=0;" vertex="1" parent="1">
          <mxGeometry x="340" y="540" width="80" height="50" as="geometry" />
        </mxCell>
        <mxCell id="LTyEZzisa3DiOGPQO1N8-6" style="edgeStyle=orthogonalEdgeStyle;rounded=0;orthogonalLoop=1;jettySize=auto;html=1;exitX=1;exitY=0.5;exitDx=0;exitDy=0;entryX=0.5;entryY=0;entryDx=0;entryDy=0;endArrow=none;endFill=0;" edge="1" parent="1" source="LTyEZzisa3DiOGPQO1N8-8">
          <mxGeometry relative="1" as="geometry">
            <mxPoint x="560" y="360" as="targetPoint" />
          </mxGeometry>
        </mxCell>
        <mxCell id="LTyEZzisa3DiOGPQO1N8-7" style="edgeStyle=orthogonalEdgeStyle;rounded=0;orthogonalLoop=1;jettySize=auto;html=1;entryX=0.5;entryY=0;entryDx=0;entryDy=0;endArrow=none;endFill=0;" edge="1" parent="1" source="LTyEZzisa3DiOGPQO1N8-8" target="LTyEZzisa3DiOGPQO1N8-20">
          <mxGeometry relative="1" as="geometry" />
        </mxCell>
        <mxCell id="LTyEZzisa3DiOGPQO1N8-8" value="Low Mod 2 &amp;lt;&amp;gt; 0" style="rhombus;whiteSpace=wrap;html=1;" vertex="1" parent="1">
          <mxGeometry x="320" y="270" width="120" height="50" as="geometry" />
        </mxCell>
        <mxCell id="LTyEZzisa3DiOGPQO1N8-9" value="Sum := Sum - NumberInLoop;" style="rounded=0;whiteSpace=wrap;html=1;" vertex="1" parent="1">
          <mxGeometry x="500" y="360" width="120" height="50" as="geometry" />
        </mxCell>
        <mxCell id="LTyEZzisa3DiOGPQO1N8-10" style="edgeStyle=orthogonalEdgeStyle;rounded=0;orthogonalLoop=1;jettySize=auto;html=1;exitX=0.5;exitY=1;exitDx=0;exitDy=0;entryX=0.5;entryY=0;entryDx=0;entryDy=0;endArrow=none;endFill=0;" edge="1" parent="1" source="LTyEZzisa3DiOGPQO1N8-11" target="LTyEZzisa3DiOGPQO1N8-5">
          <mxGeometry relative="1" as="geometry" />
        </mxCell>
        <mxCell id="LTyEZzisa3DiOGPQO1N8-11" value="Sum := Sum + NumberInLoop;" style="rounded=0;whiteSpace=wrap;html=1;" vertex="1" parent="1">
          <mxGeometry x="320" y="470" width="120" height="50" as="geometry" />
        </mxCell>
        <mxCell id="LTyEZzisa3DiOGPQO1N8-12" value="Да" style="text;html=1;align=center;verticalAlign=middle;resizable=0;points=[];autosize=1;strokeColor=none;fillColor=none;" vertex="1" parent="1">
          <mxGeometry x="440" y="270" width="40" height="30" as="geometry" />
        </mxCell>
        <mxCell id="LTyEZzisa3DiOGPQO1N8-13" value="Нет" style="text;html=1;align=center;verticalAlign=middle;resizable=0;points=[];autosize=1;strokeColor=none;fillColor=none;" vertex="1" parent="1">
          <mxGeometry x="340" y="320" width="40" height="30" as="geometry" />
        </mxCell>
        <mxCell id="LTyEZzisa3DiOGPQO1N8-14" style="edgeStyle=orthogonalEdgeStyle;rounded=0;orthogonalLoop=1;jettySize=auto;html=1;endArrow=none;endFill=0;" edge="1" parent="1" source="LTyEZzisa3DiOGPQO1N8-15">
          <mxGeometry relative="1" as="geometry">
            <mxPoint x="380" y="680" as="targetPoint" />
          </mxGeometry>
        </mxCell>
        <mxCell id="LTyEZzisa3DiOGPQO1N8-15" value="Вывести Sum" style="shape=parallelogram;perimeter=parallelogramPerimeter;whiteSpace=wrap;html=1;fixedSize=1;" vertex="1" parent="1">
          <mxGeometry x="320" y="610" width="120" height="50" as="geometry" />
        </mxCell>
        <mxCell id="LTyEZzisa3DiOGPQO1N8-16" value="Конец" style="rounded=1;whiteSpace=wrap;html=1;glass=0;shadow=0;arcSize=48;" vertex="1" parent="1">
          <mxGeometry x="320" y="680" width="120" height="50" as="geometry" />
        </mxCell>
        <mxCell id="LTyEZzisa3DiOGPQO1N8-17" style="edgeStyle=orthogonalEdgeStyle;rounded=0;orthogonalLoop=1;jettySize=auto;html=1;entryX=0.5;entryY=0;entryDx=0;entryDy=0;endArrow=none;endFill=0;" edge="1" parent="1" source="LTyEZzisa3DiOGPQO1N8-18" target="LTyEZzisa3DiOGPQO1N8-8">
          <mxGeometry relative="1" as="geometry" />
        </mxCell>
        <mxCell id="LTyEZzisa3DiOGPQO1N8-18" value="NumberInLoop := NumberInLoop * 2;" style="rounded=0;whiteSpace=wrap;html=1;" vertex="1" parent="1">
          <mxGeometry x="320" y="200" width="120" height="50" as="geometry" />
        </mxCell>
        <mxCell id="LTyEZzisa3DiOGPQO1N8-19" style="edgeStyle=orthogonalEdgeStyle;rounded=0;orthogonalLoop=1;jettySize=auto;html=1;endArrow=none;endFill=0;entryX=0.5;entryY=0;entryDx=0;entryDy=0;" edge="1" parent="1" source="LTyEZzisa3DiOGPQO1N8-20" target="LTyEZzisa3DiOGPQO1N8-11">
          <mxGeometry relative="1" as="geometry">
            <mxPoint x="380" y="480" as="targetPoint" />
          </mxGeometry>
        </mxCell>
        <mxCell id="LTyEZzisa3DiOGPQO1N8-20" value="Sum := Sum + NumberInLoop;" style="rounded=0;whiteSpace=wrap;html=1;" vertex="1" parent="1">
          <mxGeometry x="320" y="360" width="120" height="50" as="geometry" />
        </mxCell>
        <mxCell id="LTyEZzisa3DiOGPQO1N8-21" value="" style="endArrow=classic;html=1;rounded=0;exitX=0.5;exitY=1;exitDx=0;exitDy=0;" edge="1" parent="1">
          <mxGeometry width="50" height="50" relative="1" as="geometry">
            <mxPoint x="560" y="410" as="sourcePoint" />
            <mxPoint x="380" y="450" as="targetPoint" />
            <Array as="points">
              <mxPoint x="560" y="450" />
            </Array>
          </mxGeometry>
        </mxCell>
        <mxCell id="LTyEZzisa3DiOGPQO1N8-23" style="edgeStyle=orthogonalEdgeStyle;rounded=0;orthogonalLoop=1;jettySize=auto;html=1;entryX=0.5;entryY=0;entryDx=0;entryDy=0;endArrow=none;endFill=0;" edge="1" parent="1" source="LTyEZzisa3DiOGPQO1N8-22" target="LTyEZzisa3DiOGPQO1N8-3">
          <mxGeometry relative="1" as="geometry" />
        </mxCell>
        <mxCell id="LTyEZzisa3DiOGPQO1N8-22" value="A" style="ellipse;whiteSpace=wrap;html=1;aspect=fixed;" vertex="1" parent="1">
          <mxGeometry x="360" y="70" width="40" height="40" as="geometry" />
        </mxCell>
      </root>
    </mxGraphModel>
  </diagram>
</mxfile>
